# xmcd CD database file
#
# Track frame offsets:
#	150
#	13719
#	38360
#	61935
#	81564
#	96061
#	130161
#	145626
#	164248
#	189701
#	207280
#
# Disc length: 2951 seconds
#
# Revision: 0
# Processed by: cddbd v1.4PL0 Copyright (c) Steve Scherf et al.
# Submitted via: CDex 1.50beta8
#
DISCID=950b850b
DTITLE=John Lewis - Evolution
DYEAR=1999
DGENRE=Jazz
TTITLE0=Sweet Georgia Brown
TTITLE1=September Song
TTITLE2=Afternoon in Paris
TTITLE3=Two Degress East, Three Degrees West
TTITLE4=I'll Remember April
TTITLE5=Django
TTITLE6=Willow Weep for Me
TTITLE7=Cherokee
TTITLE8=For Ellington
TTITLE9=Don't Blame Me
TTITLE10=At The Horse Show
EXTD=YEAR: 1999
EXTT0=
EXTT1=
EXTT2=
EXTT3=
EXTT4=
EXTT5=
EXTT6=
EXTT7=
EXTT8=
EXTT9=
EXTT10=
PLAYORDER=
